<?xml version="1.0" encoding="UTF-8"?>
<svg version="1.1" xmlns="http://www.w3.org/2000/svg" width="418" height="418">
<path d="M0 0 C137.94 0 275.88 0 418 0 C418 137.94 418 275.88 418 418 C280.06 418 142.12 418 0 418 C0 280.06 0 142.12 0 0 Z " fill="#3FB3D7" transform="translate(0,0)"/>
<path d="M0 0 C36.96 0 73.92 0 112 0 C112 12.21 112 24.42 112 37 C124.21 37 136.42 37 149 37 C149 42.94 149 48.88 149 55 C154.94 55 160.88 55 167 55 C167 61.27 167 67.54 167 74 C161.06 74 155.12 74 149 74 C149 79.94 149 85.88 149 92 C142.73 92 136.46 92 130 92 C130 122.69 130 153.38 130 185 C124.06 185 118.12 185 112 185 C112 191.27 112 197.54 112 204 C20.26 204 -71.48 204 -166 204 C-166 197.73 -166 191.46 -166 185 C-172.27 185 -178.54 185 -185 185 C-185 178.73 -185 172.46 -185 166 C-191.27 166 -197.54 166 -204 166 C-204 123.43 -204 80.86 -204 37 C-179.25 37 -154.5 37 -129 37 C-129 42.94 -129 48.88 -129 55 C-123.06 55 -117.12 55 -111 55 C-111 61.27 -111 67.54 -111 74 C-80.31 74 -49.62 74 -18 74 C-18 79.94 -18 85.88 -18 92 C-12.06 92 -6.12 92 0 92 C0 61.64 0 31.28 0 0 Z " fill="#F2CD08" transform="translate(236,123)"/>
<path d="M0 0 C6.27 0 12.54 0 19 0 C19 30.36 19 60.72 19 92 C25.27 92 31.54 92 38 92 C38 98.27 38 104.54 38 111 C13.25 111 -11.5 111 -37 111 C-37 104.73 -37 98.46 -37 92 C-67.36 92 -97.72 92 -129 92 C-129 86.06 -129 80.12 -129 74 C-135.27 74 -141.54 74 -148 74 C-148 67.73 -148 61.46 -148 55 C-160.21 55 -172.42 55 -185 55 C-185 85.69 -185 116.38 -185 148 C-178.73 148 -172.46 148 -166 148 C-166 153.94 -166 159.88 -166 166 C-160.06 166 -154.12 166 -148 166 C-148 172.27 -148 178.54 -148 185 C-68.47 185 11.06 185 93 185 C93 178.73 93 172.46 93 166 C99.27 166 105.54 166 112 166 C112 147.85 112 129.7 112 111 C105.73 111 99.46 111 93 111 C93 104.73 93 98.46 93 92 C105.21 92 117.42 92 130 92 C130 122.69 130 153.38 130 185 C124.06 185 118.12 185 112 185 C112 191.27 112 197.54 112 204 C20.26 204 -71.48 204 -166 204 C-166 197.73 -166 191.46 -166 185 C-172.27 185 -178.54 185 -185 185 C-185 178.73 -185 172.46 -185 166 C-191.27 166 -197.54 166 -204 166 C-204 123.43 -204 80.86 -204 37 C-179.25 37 -154.5 37 -129 37 C-129 42.94 -129 48.88 -129 55 C-123.06 55 -117.12 55 -111 55 C-111 61.27 -111 67.54 -111 74 C-80.31 74 -49.62 74 -18 74 C-18 79.94 -18 85.88 -18 92 C-12.06 92 -6.12 92 0 92 C0 61.64 0 31.28 0 0 Z " fill="#000000" transform="translate(236,123)"/>
<path d="M0 0 C30.69 0 61.38 0 93 0 C93 12.21 93 24.42 93 37 C105.21 37 117.42 37 130 37 C130 42.94 130 48.88 130 55 C135.94 55 141.88 55 148 55 C148 61.27 148 67.54 148 74 C142.06 74 136.12 74 130 74 C130 79.94 130 85.88 130 92 C105.58 92 81.16 92 56 92 C56 98.27 56 104.54 56 111 C43.79 111 31.58 111 19 111 C19 104.73 19 98.46 19 92 C12.73 92 6.46 92 0 92 C0 61.64 0 31.28 0 0 Z " fill="#F2CD08" transform="translate(255,123)"/>
<path d="M0 0 C12.21 0 24.42 0 37 0 C37 30.69 37 61.38 37 93 C43.27 93 49.54 93 56 93 C56 98.94 56 104.88 56 111 C123.32 111 190.64 111 260 111 C260 105.06 260 99.12 260 93 C265.94 93 271.88 93 278 93 C278 86.73 278 80.46 278 74 C284.27 74 290.54 74 297 74 C297 86.21 297 98.42 297 111 C290.73 111 284.46 111 278 111 C278 117.27 278 123.54 278 130 C198.47 130 118.94 130 37 130 C37 123.73 37 117.46 37 111 C31.06 111 25.12 111 19 111 C19 105.06 19 99.12 19 93 C12.73 93 6.46 93 0 93 C0 62.31 0 31.62 0 0 Z " fill="#DDBE16" transform="translate(51,178)"/>
<path d="M0 0 C17.82 0 35.64 0 54 0 C54 17.82 54 35.64 54 54 C13.08 54 -27.84 54 -70 54 C-70 38.82 -70 23.64 -70 8 C-46.9 8 -23.8 8 0 8 C0 5.36 0 2.72 0 0 Z " fill="#1C748F" transform="translate(348,319)"/>
<path d="M0 0 C6.27 0 12.54 0 19 0 C19 5.94 19 11.88 19 18 C49.36 18 79.72 18 111 18 C111 30.21 111 42.42 111 55 C80.64 55 50.28 55 19 55 C19 49.06 19 43.12 19 37 C12.73 37 6.46 37 0 37 C0 24.79 0 12.58 0 0 Z " fill="#DDBE16" transform="translate(88,197)"/>
<path d="M0 0 C6.27 0 12.54 0 19 0 C19 12.21 19 24.42 19 37 C31.21 37 43.42 37 56 37 C56 42.94 56 48.88 56 55 C61.94 55 67.88 55 74 55 C74 61.27 74 67.54 74 74 C68.06 74 62.12 74 56 74 C56 79.94 56 85.88 56 92 C49.73 92 43.46 92 37 92 C37 86.06 37 80.12 37 74 C18.85 74 0.7 74 -18 74 C-18 67.73 -18 61.46 -18 55 C-12.06 55 -6.12 55 0 55 C0 36.85 0 18.7 0 0 Z " fill="#F28608" transform="translate(329,123)"/>
<path d="M0 0 C6.27 0 12.54 0 19 0 C19 12.21 19 24.42 19 37 C49.36 37 79.72 37 111 37 C111 42.94 111 48.88 111 55 C92.85 55 74.7 55 56 55 C56 61.27 56 67.54 56 74 C43.79 74 31.58 74 19 74 C19 67.73 19 61.46 19 55 C12.73 55 6.46 55 0 55 C0 36.85 0 18.7 0 0 Z " fill="#DDBE16" transform="translate(255,160)"/>
<path d="M0 0 C6.27 0 12.54 0 19 0 C19 12.21 19 24.42 19 37 C31.21 37 43.42 37 56 37 C56 42.94 56 48.88 56 55 C37.52 55 19.04 55 0 55 C0 36.85 0 18.7 0 0 Z " fill="#000000" transform="translate(329,123)"/>
<path d="M0 0 C5.94 0 11.88 0 18 0 C18 6.27 18 12.54 18 19 C24.27 19 30.54 19 37 19 C37 24.94 37 30.88 37 37 C12.58 37 -11.84 37 -37 37 C-37 31.06 -37 25.12 -37 19 C-24.79 19 -12.58 19 0 19 C0 12.73 0 6.46 0 0 Z " fill="#FFE74C" transform="translate(311,215)"/>
<path d="M0 0 C24.42 0 48.84 0 74 0 C74 12.21 74 24.42 74 37 C68.06 37 62.12 37 56 37 C56 30.73 56 24.46 56 18 C37.52 18 19.04 18 0 18 C0 12.06 0 6.12 0 0 Z " fill="#FFE74C" transform="translate(255,123)"/>
<path d="M0 0 C0.9270238 0.00291284 1.8540476 0.00582568 2.80916303 0.00882679 C3.78598647 0.00797237 4.76280991 0.00711794 5.76923406 0.00623763 C9.06901515 0.00457986 12.36874631 0.01010903 15.66852278 0.01555592 C18.02332013 0.01583775 20.37811757 0.01568013 22.73291487 0.01511341 C29.14794795 0.01482529 35.56296252 0.0207244 41.97799128 0.02768737 C47.99617572 0.03376182 54.01436235 0.03430919 60.03254931 0.03533924 C71.95596976 0.03753008 83.87938338 0.04419101 95.80280012 0.05364186 C107.38808623 0.06281516 118.97337049 0.06989639 130.55865949 0.07414967 C131.27228871 0.07441239 131.98591793 0.07467512 132.72117228 0.0749458 C136.30109466 0.0762508 139.88101706 0.07751452 143.46093947 0.0787577 C173.17914559 0.08913129 202.8973446 0.10682458 232.61554426 0.12908131 C232.61554426 2.10908131 232.61554426 4.08908131 232.61554426 6.12908131 C153.74554426 6.12908131 74.87554426 6.12908131 -6.38445574 6.12908131 C-6.71445574 4.47908131 -7.04445574 2.82908131 -7.38445574 1.12908131 C-5.45711313 -0.7982613 -2.56502966 0.00611978 0 0 Z " fill="#7CCBE4" transform="translate(185.3844557404518,411.8709186911583)"/>
<path d="M0 0 C24.42 0 48.84 0 74 0 C74 6.27 74 12.54 74 19 C49.58 19 25.16 19 0 19 C0 12.73 0 6.46 0 0 Z " fill="#DDBE16" transform="translate(162,252)"/>
<path d="M0 0 C24.42 0 48.84 0 74 0 C74 6.27 74 12.54 74 19 C49.58 19 25.16 19 0 19 C0 12.73 0 6.46 0 0 Z " fill="#000000" transform="translate(255,104)"/>
<path d="M0 0 C6.27 0 12.54 0 19 0 C19 5.94 19 11.88 19 18 C24.94 18 30.88 18 37 18 C37 30.21 37 42.42 37 55 C31.06 55 25.12 55 19 55 C19 49.06 19 43.12 19 37 C12.73 37 6.46 37 0 37 C0 24.79 0 12.58 0 0 Z " fill="#FFE74C" transform="translate(88,197)"/>
<path d="M0 0 C18.15 0 36.3 0 55 0 C55 6.27 55 12.54 55 19 C36.85 19 18.7 19 0 19 C0 12.73 0 6.46 0 0 Z " fill="#FFE74C" transform="translate(144,215)"/>
<path d="M0 0 C17.82 0 35.64 0 54 0 C54 6.27 54 12.54 54 19 C36.18 19 18.36 19 0 19 C0 12.73 0 6.46 0 0 Z " fill="#DEF7FF" transform="translate(46,141)"/>
<path d="M0 0 C18.48 0 36.96 0 56 0 C56 5.94 56 11.88 56 18 C37.52 18 19.04 18 0 18 C0 12.06 0 6.12 0 0 Z " fill="#FFE74C" transform="translate(199,234)"/>
<path d="M0 0 C5.94 0 11.88 0 18 0 C18 18.48 18 36.96 18 56 C12.06 56 6.12 56 0 56 C0 37.52 0 19.04 0 0 Z " fill="#F2CD08" transform="translate(70,178)"/>
<path d="M0 0 C18.15 0 36.3 0 55 0 C55 5.94 55 11.88 55 18 C36.85 18 18.7 18 0 18 C0 12.06 0 6.12 0 0 Z " fill="#D78320" transform="translate(311,197)"/>
<path d="M0 0 C58.74 0 117.48 0 178 0 C178.33 1.65 178.66 3.3 179 5 C119.93 5 60.86 5 0 5 C0 3.35 0 1.7 0 0 Z " fill="#4CB8DA" transform="translate(0,413)"/>
<path d="M0 0 C5.61 0 11.22 0 17 0 C17 10.89 17 21.78 17 33 C5.12 33 -6.76 33 -19 33 C-19 28.05 -19 23.1 -19 18 C-12.73 18 -6.46 18 0 18 C0 12.06 0 6.12 0 0 Z " fill="#DEF7FF" transform="translate(385,197)"/>
<path d="M0 0 C12.21 0 24.42 0 37 0 C37 6.27 37 12.54 37 19 C24.79 19 12.58 19 0 19 C0 12.73 0 6.46 0 0 Z " fill="#FFE74C" transform="translate(125,252)"/>
<path d="M0 0 C12.21 0 24.42 0 37 0 C37 5.94 37 11.88 37 18 C24.79 18 12.58 18 0 18 C0 12.06 0 6.12 0 0 Z " fill="#F2CD08" transform="translate(162,234)"/>
<path d="M0 0 C3.3 0 6.6 0 10 0 C10 17.82 10 35.64 10 54 C6.7 54 3.4 54 0 54 C0 36.18 0 18.36 0 0 Z " fill="#DEF7FF" transform="translate(0,141)"/>
<path d="M0 0 C6.27 0 12.54 0 19 0 C19 6.27 19 12.54 19 19 C12.73 19 6.46 19 0 19 C0 12.73 0 6.46 0 0 Z " fill="#000000" transform="translate(292,141)"/>
<path d="M0 0 C3.3 0 6.6 0 10 0 C10 11.55 10 23.1 10 35 C6.7 35 3.4 35 0 35 C0 23.45 0 11.9 0 0 Z " fill="#1C748F" transform="translate(0,195)"/>
<path d="M0 0 C6.27 0 12.54 0 19 0 C19 5.94 19 11.88 19 18 C12.73 18 6.46 18 0 18 C0 12.06 0 6.12 0 0 Z " fill="#000000" transform="translate(366,197)"/>
<path d="M0 0 C5.94 0 11.88 0 18 0 C18 6.27 18 12.54 18 19 C12.06 19 6.12 19 0 19 C0 12.73 0 6.46 0 0 Z " fill="#000000" transform="translate(385,178)"/>
<path d="M0 0 C5.94 0 11.88 0 18 0 C18 6.27 18 12.54 18 19 C12.06 19 6.12 19 0 19 C0 12.73 0 6.46 0 0 Z " fill="#FFE74C" transform="translate(70,178)"/>
</svg>
